<svg width="13" height="13" viewBox="0 0 13 13" fill="none" xmlns="http://www.w3.org/2000/svg">
<path d="M10.891 0.810987H10.336L10.177 1.39399C10.1043 1.65298 9.95045 1.88182 9.73805 2.04688C9.52565 2.21195 9.26589 2.30451 8.99698 2.31099C8.85676 2.31576 8.71744 2.28693 8.59063 2.22692C8.46381 2.1669 8.35319 2.07744 8.26798 1.96599C8.1825 1.84941 8.12496 1.71474 8.09982 1.57238C8.07468 1.43003 8.0826 1.28379 8.12298 1.14499L8.21498 0.799988H6.42798L6.26898 1.38299C6.19559 1.64459 6.04038 1.87582 5.82606 2.04281C5.61174 2.2098 5.34958 2.30378 5.07798 2.31099C4.938 2.31415 4.79922 2.28461 4.67267 2.22472C4.54611 2.16483 4.43528 2.07623 4.34898 1.96599C4.26349 1.84941 4.20596 1.71474 4.18082 1.57238C4.15568 1.43003 4.1636 1.28379 4.20398 1.14499L4.29598 0.799988H3.70998C3.25256 0.816625 2.81227 0.978272 2.45276 1.26157C2.09324 1.54487 1.83312 1.93514 1.70998 2.37599L0.0679758 8.43599C-0.00140842 8.65485 -0.0171869 8.88718 0.0219694 9.11342C0.0611257 9.33966 0.15407 9.55317 0.292976 9.73599C0.427822 9.90851 0.600893 10.0474 0.798548 10.1416C0.996203 10.2358 1.21304 10.2828 1.43198 10.279H2.23998V10.637C2.24077 11.0899 2.42091 11.5241 2.74099 11.8446C3.06107 12.165 3.49505 12.3457 3.94798 12.347H10.891C11.3439 12.3459 11.778 12.1655 12.0983 11.8453C12.4185 11.525 12.5989 11.0909 12.6 10.638V2.51699C12.5981 2.06458 12.4174 1.63127 12.0972 1.31165C11.777 0.992022 11.3434 0.81204 10.891 0.810987ZM1.44398 9.24699C1.38429 9.25098 1.32449 9.24104 1.26931 9.21795C1.21412 9.19487 1.16505 9.15928 1.12598 9.11399C1.08541 9.05639 1.0605 8.98925 1.05366 8.91914C1.04682 8.84902 1.0583 8.77833 1.08698 8.71399L2.43798 3.65599H10.678L9.39298 8.45599C9.32599 8.6764 9.19403 8.87145 9.01435 9.01562C8.83468 9.15979 8.61566 9.24635 8.38598 9.26399H1.44398V9.24699ZM11.566 10.638C11.566 10.8178 11.4945 10.9903 11.3674 11.1174C11.2402 11.2446 11.0678 11.316 10.888 11.316H3.96198C3.78216 11.316 3.60971 11.2446 3.48256 11.1174C3.35541 10.9903 3.28398 10.8178 3.28398 10.638V10.281H8.38398C8.8414 10.2643 9.28168 10.1027 9.64119 9.8194C10.0007 9.53611 10.2608 9.14583 10.384 8.70499L11.563 4.31999L11.566 10.638Z" fill="white"/>
<path d="M5.074 1.84099C5.23818 1.83393 5.39587 1.77493 5.52437 1.67249C5.65286 1.57005 5.74552 1.42947 5.789 1.27099L5.97399 0.570993C5.99791 0.505878 6.00549 0.435889 5.99606 0.367164C5.98663 0.298439 5.96049 0.233077 5.91992 0.17681C5.87935 0.120543 5.82559 0.0750895 5.76336 0.0444361C5.70113 0.0137827 5.63233 -0.00113443 5.563 0.000992913C5.39882 0.00805635 5.24112 0.0670573 5.11262 0.169495C4.98412 0.271932 4.89147 0.412516 4.84799 0.570993L4.66299 1.27099C4.63983 1.33611 4.63283 1.40588 4.64257 1.4743C4.65232 1.54272 4.67853 1.60776 4.71896 1.66382C4.75938 1.71988 4.8128 1.76529 4.87464 1.79615C4.93649 1.82701 5.0049 1.8424 5.074 1.84099Z" fill="white"/>
<path d="M8.99498 1.84099C9.15916 1.83393 9.31686 1.77493 9.44536 1.67249C9.57385 1.57005 9.66651 1.42947 9.70998 1.27099L9.89499 0.570993C9.91891 0.505878 9.92648 0.435889 9.91705 0.367164C9.90762 0.298439 9.88147 0.233077 9.8409 0.17681C9.80033 0.120543 9.74657 0.0750895 9.68435 0.0444361C9.62212 0.0137827 9.55332 -0.00113443 9.48398 0.000992913C9.3198 0.00805635 9.16211 0.0670573 9.03361 0.169495C8.90512 0.271932 8.81246 0.412516 8.76899 0.570993L8.56898 1.27099C8.54663 1.33716 8.54066 1.40776 8.55157 1.47675C8.56249 1.54573 8.58996 1.61104 8.63164 1.66708C8.67333 1.72312 8.72798 1.76821 8.79091 1.7985C8.85385 1.82879 8.92318 1.84337 8.99299 1.84099H8.99498Z" fill="white"/>
<path d="M6.33298 6.77H5.09998C5.0563 6.77264 5.01428 6.78768 4.97886 6.81337C4.94343 6.83905 4.91607 6.87431 4.89998 6.915L4.66198 7.815C4.65539 7.83173 4.65313 7.84985 4.6554 7.86769C4.65766 7.88553 4.66439 7.9025 4.67496 7.91705C4.68552 7.9316 4.69958 7.94326 4.71584 7.95094C4.7321 7.95862 4.75003 7.96208 4.76798 7.961H6.00098C6.04465 7.95836 6.08667 7.94331 6.1221 7.91763C6.15752 7.89194 6.18489 7.85669 6.20098 7.816L6.43998 6.916C6.44683 6.89913 6.44927 6.8808 6.44706 6.86273C6.44486 6.84466 6.43808 6.82745 6.42736 6.81274C6.41665 6.79802 6.40236 6.78628 6.38585 6.77863C6.36933 6.77097 6.35113 6.76766 6.33298 6.769V6.77Z" fill="white"/>
<path d="M4.15997 6.76999H2.92697C2.8833 6.77263 2.84128 6.78767 2.80586 6.81336C2.77043 6.83904 2.74307 6.8743 2.72697 6.91499L2.48897 7.81499C2.4826 7.83167 2.48051 7.84968 2.48288 7.86737C2.48525 7.88507 2.49202 7.90189 2.50255 7.91631C2.51309 7.93072 2.52707 7.94227 2.54321 7.9499C2.55935 7.95753 2.57715 7.961 2.59497 7.95999H3.82797C3.87165 7.95735 3.91367 7.9423 3.94909 7.91662C3.98452 7.89093 4.01188 7.85568 4.02797 7.81499L4.26697 6.91499C4.27635 6.8983 4.28074 6.87926 4.27962 6.86015C4.2785 6.84103 4.27191 6.82264 4.26064 6.80716C4.24937 6.79167 4.2339 6.77975 4.21605 6.77281C4.19821 6.76587 4.17874 6.7642 4.15997 6.76799V6.76999Z" fill="white"/>
<path d="M8.50595 6.77H7.27295C7.22927 6.77264 7.18726 6.78768 7.15183 6.81337C7.11641 6.83905 7.08904 6.87431 7.07295 6.915L6.83495 7.815C6.82836 7.83173 6.8261 7.84985 6.82837 7.86769C6.83064 7.88553 6.83736 7.9025 6.84793 7.91705C6.85849 7.9316 6.87255 7.94326 6.88881 7.95094C6.90507 7.95862 6.923 7.96208 6.94095 7.961H8.17395C8.21763 7.95836 8.25965 7.94331 8.29507 7.91763C8.3305 7.89194 8.35786 7.85669 8.37395 7.816L8.61295 6.916C8.6198 6.89913 8.62225 6.8808 8.62004 6.86273C8.61783 6.84466 8.61105 6.82745 8.60033 6.81274C8.58962 6.79802 8.57533 6.78628 8.55882 6.77863C8.5423 6.77097 8.52411 6.76766 8.50595 6.769V6.77Z" fill="white"/>
<path d="M6.83694 4.87599H5.60395C5.56027 4.87863 5.51825 4.89368 5.48283 4.91936C5.4474 4.94505 5.42004 4.9803 5.40395 5.02099L5.16595 5.92099C5.15936 5.93772 5.15709 5.95585 5.15936 5.97368C5.16163 5.99152 5.16836 6.0085 5.17892 6.02305C5.18949 6.0376 5.20355 6.04926 5.21981 6.05694C5.23607 6.06462 5.254 6.06807 5.27195 6.06699H6.50495C6.54874 6.06427 6.59083 6.04908 6.62627 6.02321C6.66171 5.99734 6.68901 5.96187 6.70494 5.92099L6.94395 5.02099C6.95333 5.0043 6.95771 4.98526 6.95659 4.96615C6.95547 4.94703 6.94888 4.92864 6.93761 4.91316C6.92635 4.89768 6.91087 4.88575 6.89302 4.87881C6.87518 4.87187 6.85571 4.8702 6.83694 4.87399V4.87599Z" fill="white"/>
<path d="M4.677 4.87499H3.444C3.40021 4.87772 3.35811 4.89291 3.32268 4.91878C3.28724 4.94465 3.25994 4.98012 3.244 5.02099L3.006 5.92099C2.99963 5.93767 2.99754 5.95568 2.99991 5.97338C3.00228 5.99107 3.00904 6.00789 3.01958 6.02231C3.03012 6.03672 3.0441 6.04827 3.06024 6.0559C3.07638 6.06353 3.09418 6.067 3.112 6.06599H4.345C4.38868 6.06335 4.43069 6.04831 4.46612 6.02262C4.50155 5.99694 4.52891 5.96168 4.545 5.92099L4.784 5.02099C4.79086 5.00413 4.79329 4.98579 4.79109 4.96772C4.78888 4.94966 4.7821 4.93245 4.77139 4.91773C4.76067 4.90302 4.74638 4.89128 4.72987 4.88362C4.71335 4.87597 4.69516 4.87265 4.677 4.87399V4.87499Z" fill="white"/>
<path d="M7.45895 6.08099H8.69196C8.73552 6.07843 8.77746 6.06353 8.81287 6.03803C8.84828 6.01253 8.87572 5.97749 8.89196 5.93698L9.13096 5.03699C9.13754 5.02026 9.1398 5.00213 9.13754 4.98429C9.13527 4.96646 9.12854 4.94948 9.11798 4.93493C9.10741 4.92038 9.09335 4.90872 9.0771 4.90104C9.06084 4.89336 9.04291 4.88991 9.02496 4.89099H7.78996C7.74628 4.89363 7.70426 4.90867 7.66884 4.93436C7.63341 4.96004 7.60605 4.9953 7.58996 5.03599L7.35196 5.93598C7.34524 5.9526 7.34288 5.97067 7.34512 5.98845C7.34736 6.00624 7.35411 6.02315 7.36474 6.03759C7.37537 6.05203 7.38951 6.0635 7.40583 6.07092C7.42214 6.07834 7.44009 6.08146 7.45796 6.07999L7.45895 6.08099Z" fill="white"/>
</svg>
