<svg width="16" height="14" viewBox="0 0 16 14" fill="none" xmlns="http://www.w3.org/2000/svg">
<path d="M6.80499 9.835C6.63603 9.64028 6.50418 9.41624 6.41599 9.174L4.27599 10.407C3.99667 10.0505 3.5973 9.80776 3.15228 9.72387C2.70726 9.63998 2.24692 9.7207 1.85699 9.951C1.64247 10.0754 1.45455 10.2408 1.30396 10.4377C1.15337 10.6347 1.04305 10.8594 0.979299 11.0991C0.915552 11.3387 0.899625 11.5885 0.93243 11.8343C0.965234 12.0801 1.04613 12.317 1.17049 12.5315C1.29485 12.746 1.46025 12.9339 1.65723 13.0845C1.85422 13.2351 2.07894 13.3454 2.31856 13.4092C2.55818 13.4729 2.80801 13.4889 3.05379 13.4561C3.29957 13.4233 3.53647 13.3424 3.75099 13.218C4.11237 13.0123 4.3943 12.6913 4.55167 12.3064C4.70903 11.9215 4.73274 11.495 4.61899 11.095L6.80499 9.835Z" fill="white"/>
<path d="M8.30101 10.449C7.92662 10.4516 7.56033 10.3399 7.25101 10.129L6.47601 10.585C6.97409 11.042 7.62551 11.2956 8.30151 11.2956C8.97752 11.2956 9.62893 11.042 10.127 10.585L9.35101 10.129C9.0417 10.3399 8.67541 10.4516 8.30101 10.449Z" fill="white"/>
<path d="M9.16797 6.82799C9.48101 6.98646 9.7445 7.2279 9.92967 7.52593C10.1148 7.82396 10.2146 8.16714 10.218 8.51799V8.63099L10.994 9.08699C11.0407 8.90062 11.0639 8.70913 11.063 8.51699C11.0596 7.93941 10.8749 7.37748 10.5348 6.91059C10.1948 6.44369 9.71666 6.09543 9.16797 5.91499V6.82799Z" fill="white"/>
<path d="M8.30098 7.11599C7.96991 7.11733 7.64953 7.23336 7.39437 7.44431C7.13921 7.65527 6.96502 7.94812 6.90146 8.27304C6.8379 8.59796 6.88888 8.93486 7.04573 9.22642C7.20259 9.51798 7.45562 9.74618 7.76178 9.87219C8.06794 9.9982 8.4083 10.0142 8.72495 9.91757C9.04159 9.8209 9.31496 9.61749 9.49853 9.34197C9.68211 9.06645 9.76454 8.73583 9.7318 8.40638C9.69907 8.07693 9.55318 7.769 9.31898 7.53498C9.18513 7.40171 9.02634 7.29611 8.85167 7.22421C8.677 7.15232 8.48987 7.11554 8.30098 7.11599Z" fill="white"/>
<path d="M6.40701 8.62999V8.51499C6.41041 8.16414 6.51014 7.82096 6.69531 7.52293C6.88048 7.2249 7.14397 6.98346 7.45701 6.82499V5.91499C6.90883 6.09549 6.43115 6.44352 6.09134 6.91001C5.75153 7.37649 5.56673 7.93788 5.56301 8.51499C5.56211 8.70713 5.5853 8.89862 5.63201 9.08499L6.40701 8.62999Z" fill="white"/>
<path d="M7.91299 3.89099V6.58399C8.04052 6.55609 8.17047 6.54069 8.30099 6.53799C8.43141 6.54206 8.56123 6.55745 8.68899 6.58399V3.89099C9.1476 3.795 9.55436 3.53243 9.83065 3.15401C10.1069 2.77559 10.2332 2.30818 10.1849 1.84212C10.1367 1.37606 9.91737 0.944426 9.56942 0.630631C9.22146 0.316837 8.76954 0.143158 8.30099 0.143158C7.83243 0.143158 7.38051 0.316837 7.03256 0.630631C6.6846 0.944426 6.46531 1.37606 6.41706 1.84212C6.36881 2.30818 6.49502 2.77559 6.77132 3.15401C7.04761 3.53243 7.45437 3.795 7.91299 3.89099Z" fill="white"/>
<path d="M14.751 9.95C14.3596 9.72513 13.9008 9.64751 13.4573 9.73112C13.0137 9.81473 12.6146 10.0541 12.332 10.406L10.164 9.174C10.0851 9.42028 9.95256 9.64602 9.776 9.835L11.967 11.113C11.8809 11.4528 11.8911 11.8099 11.9966 12.1442C12.102 12.4785 12.2985 12.7769 12.564 13.0058C12.8295 13.2347 13.1535 13.3851 13.4997 13.4402C13.8459 13.4952 14.2006 13.4528 14.5241 13.3175C14.8475 13.1823 15.1269 12.9597 15.3308 12.6746C15.5348 12.3895 15.6553 12.0532 15.6789 11.7034C15.7025 11.3537 15.6281 11.0043 15.4642 10.6944C15.3003 10.3845 15.0534 10.1264 14.751 9.949V9.95Z" fill="white"/>
</svg>
