<?xml version="1.0" encoding="UTF-8" standalone="no"?>
<svg
   width="19.588"
   height="17.211"
   viewBox="0 0 19.588 17.211"
   version="1.1"
   id="svg7"
   sodipodi:docname="home_disabled.svg"
   inkscape:version="1.1 (c68e22c387, 2021-05-23)"
   xmlns:inkscape="http://www.inkscape.org/namespaces/inkscape"
   xmlns:sodipodi="http://sodipodi.sourceforge.net/DTD/sodipodi-0.dtd"
   xmlns="http://www.w3.org/2000/svg"
   xmlns:svg="http://www.w3.org/2000/svg">
  <sodipodi:namedview
     id="namedview9"
     pagecolor="#ffffff"
     bordercolor="#666666"
     borderopacity="1.0"
     inkscape:pageshadow="2"
     inkscape:pageopacity="0.0"
     inkscape:pagecheckerboard="0"
     showgrid="false"
     inkscape:zoom="35.866841"
     inkscape:cx="7.9599985"
     inkscape:cy="7.4023804"
     inkscape:window-width="2560"
     inkscape:window-height="1377"
     inkscape:window-x="-8"
     inkscape:window-y="-8"
     inkscape:window-maximized="1"
     inkscape:current-layer="svg7" />
  <defs
     id="defs4">
    <style
       id="style2">
      .cls-1 {
        fill: #fff;
      }
    </style>
  </defs>
  <path
     id="noun_Home_3234651"
     class="cls-1"
     d="M79.161,123.766a.662.662,0,0,1-.459.191.686.686,0,0,1-.459-.191l-.015-.013c-.372-.314-.738-.635-1.107-.951-.076-.065-.149-.13-.225-.193v9.07a.33.33,0,0,1-.325.325h-.024c-.567.015-1.135,0-1.7,0H72.034v-6.475a.585.585,0,0,0-.5-.572.4.4,0,0,0-.071-.009H67.971c-.1,0-.2,0-.3,0a.587.587,0,0,0-.593.576c-.022.55,0,1.107,0,1.657V130.2c0,.381,0,.762-.007,1.143v.325c0,.108,0,.217,0,.325H62.542a.33.33,0,0,1-.325-.325v-9.065l-.435.375c-.305.262-.609.524-.914.784a.664.664,0,0,1-.918,0,.652.652,0,0,1,0-.918l.015-.013c.359-.327.738-.635,1.107-.951l2.28-1.96L66,117.65l2.183-1.875c.3-.262.609-.522.912-.784a.666.666,0,0,1,.459-.191.6.6,0,0,1,.292.076l.011.006a.734.734,0,0,1,.156.11l.015.013c.372.314.738.635,1.107.951l2.28,1.96,2.649,2.274q1.091.939,2.183,1.875c.3.262.609.522.912.784A.653.653,0,0,1,79.161,123.766Z"
     transform="translate(-59.76 -114.8)"
     style="fill:#ffffff;fill-opacity:0.47843137;opacity:1" />
</svg>
