<svg width="17" height="18" viewBox="0 0 17 18" fill="none" xmlns="http://www.w3.org/2000/svg">
<path fill-rule="evenodd" clip-rule="evenodd" d="M8.654 17.1C10.2667 17.1 11.8431 16.6218 13.184 15.7259C14.5249 14.8299 15.57 13.5565 16.1872 12.0666C16.8044 10.5767 16.9659 8.9373 16.6514 7.3556C16.3369 5.77391 15.5604 4.32101 14.4201 3.18061C13.2798 2.04021 11.827 1.26354 10.2454 0.948802C8.66372 0.634065 7.02426 0.795399 5.53429 1.4124C4.04433 2.02941 2.77078 3.07437 1.87468 4.41516C0.97859 5.75594 0.500198 7.33234 0.5 8.945C0.5 11.1076 1.35908 13.1816 2.88825 14.7108C4.41742 16.2399 6.49143 17.099 8.654 17.099V17.1ZM8.654 15.617C9.9736 15.617 11.2636 15.2257 12.3608 14.4926C13.458 13.7594 14.3131 12.7174 14.8181 11.4983C15.3231 10.2791 15.4552 8.9376 15.1978 7.64336C14.9404 6.34912 14.3049 5.16028 13.3718 4.22719C12.4387 3.29409 11.2499 2.65864 9.95564 2.4012C8.6614 2.14376 7.31988 2.27589 6.10074 2.78088C4.88159 3.28587 3.83956 4.14103 3.10643 5.23824C2.37331 6.33544 1.982 7.62541 1.982 8.945C1.982 9.82118 2.15458 10.6888 2.48988 11.4983C2.82518 12.3078 3.31663 13.0433 3.93618 13.6628C5.18743 14.9141 6.88448 15.617 8.654 15.617ZM9.954 5.427C9.95674 5.57254 9.92998 5.71713 9.87532 5.85204C9.82067 5.98696 9.73926 6.1094 9.636 6.212C9.53806 6.31635 9.41945 6.39914 9.28774 6.4551C9.15602 6.51105 9.01409 6.53895 8.871 6.537C8.72733 6.53883 8.58484 6.5109 8.45249 6.45497C8.32015 6.39904 8.20081 6.31631 8.102 6.212C7.99806 6.10976 7.916 5.98745 7.86082 5.8525C7.80563 5.71755 7.77848 5.57278 7.781 5.427C7.77871 5.28081 7.80595 5.13566 7.86111 5.00026C7.91627 4.86485 7.99821 4.74198 8.102 4.639C8.20112 4.53564 8.32012 4.4534 8.45184 4.39722C8.58357 4.34103 8.72529 4.31207 8.8685 4.31207C9.01171 4.31207 9.15343 4.34103 9.28516 4.39722C9.41688 4.4534 9.53588 4.53564 9.635 4.639C9.73807 4.74237 9.81933 4.86538 9.87395 5.00074C9.92858 5.1361 9.95546 5.28105 9.953 5.427H9.954ZM9.848 12.739C9.53 12.8917 9.276 13.0083 9.086 13.089C8.87595 13.1729 8.65115 13.2137 8.425 13.209C8.25925 13.2188 8.09332 13.1933 7.93817 13.1341C7.78302 13.075 7.64219 12.9836 7.525 12.866C7.30553 12.6286 7.18872 12.3141 7.2 11.991C7.20011 11.8507 7.20812 11.7104 7.224 11.571C7.24 11.4283 7.26567 11.267 7.301 11.087L7.701 9.373C7.73633 9.209 7.76633 9.05334 7.791 8.906C7.81393 8.77388 7.82597 8.6401 7.827 8.506C7.84298 8.34517 7.80384 8.18368 7.716 8.048C7.65802 7.99777 7.59015 7.96025 7.51678 7.93786C7.4434 7.91547 7.36615 7.90871 7.29 7.918C7.18171 7.91916 7.07445 7.93913 6.973 7.977C6.865 8.016 6.801 7.56 6.801 7.56C7.06167 7.43067 7.311 7.32034 7.549 7.229C7.76423 7.14166 7.99376 7.09488 8.226 7.091C8.38926 7.08079 8.5528 7.10567 8.70564 7.16397C8.85847 7.22227 8.99703 7.31265 9.112 7.429C9.32521 7.6701 9.43669 7.98445 9.423 8.306C9.423 8.38067 9.416 8.51167 9.402 8.699C9.38972 8.87326 9.36296 9.04619 9.322 9.216L8.922 10.923C8.89 11.0603 8.861 11.217 8.835 11.393C8.81287 11.5253 8.79984 11.6589 8.796 11.793C8.77707 11.9579 8.82178 12.1239 8.921 12.257C9.04463 12.352 9.19993 12.396 9.355 12.38C9.46695 12.377 9.57769 12.3561 9.683 12.318C9.805 12.277 9.842 12.738 9.842 12.738L9.848 12.739Z" fill="#2F94D1"/>
</svg>
