<svg width="12" height="13" viewBox="0 0 12 13" fill="none" xmlns="http://www.w3.org/2000/svg">
<path d="M5.83798 0C5.15998 0 4.49722 0.201049 3.93348 0.577722C3.36975 0.954396 2.93038 1.48978 2.67092 2.11616C2.41146 2.74255 2.34357 3.4318 2.47584 4.09677C2.60811 4.76174 2.9346 5.37255 3.41401 5.85196C3.89343 6.33138 4.50424 6.65786 5.16921 6.79013C5.83418 6.9224 6.52343 6.85452 7.14982 6.59506C7.7762 6.3356 8.31158 5.89623 8.68825 5.33249C9.06493 4.76876 9.26598 4.10599 9.26598 3.428C9.26492 2.51916 8.90341 1.64785 8.26077 1.00521C7.61812 0.362562 6.74682 0.00105863 5.83798 0V0Z" fill="white"/>
<path d="M10.103 9.09499C9.64786 8.6274 9.10367 8.25573 8.50254 8.00188C7.90141 7.74804 7.25553 7.61716 6.603 7.617H5.076C4.42348 7.61722 3.77761 7.7481 3.17649 8.00195C2.57537 8.25579 2.03118 8.62745 1.576 9.09499C0.646564 10.0316 0.125004 11.2975 0.125 12.617C0.125 12.718 0.165142 12.815 0.236593 12.8864C0.308045 12.9579 0.404953 12.998 0.506001 12.998H11.17C11.271 12.998 11.368 12.9579 11.4394 12.8864C11.5109 12.815 11.551 12.718 11.551 12.617C11.5518 11.298 11.0313 10.032 10.103 9.09499Z" fill="white"/>
</svg>
