<svg width="18" height="21" viewBox="0 0 18 21" fill="none" xmlns="http://www.w3.org/2000/svg">
<path d="M9.00101 0L0.727997 1.55103V14.969C0.727741 15.8622 1.02642 16.7297 1.57645 17.4334C2.12648 18.1372 2.89622 18.6365 3.763 18.852L9.00101 20.165L14.244 18.852C15.1098 18.6356 15.8785 18.1358 16.4275 17.4322C16.9766 16.7285 17.2745 15.8615 17.274 14.969V1.55301L9.00101 0ZM5.159 12.291L3.92801 11.645L2.69699 12.291L2.935 10.921L1.935 9.95401L3.31 9.75403L3.92499 8.50803L4.54001 9.75403L5.91501 9.95401L4.922 10.921L5.159 12.291ZM9.00101 10.76L6.77802 11.934L7.202 9.45203L5.40201 7.69901L7.89401 7.33701L9.00601 5.07703L10.123 7.33701L12.61 7.69901L10.81 9.45203L11.234 11.934L9.00101 10.76ZM15.071 10.92L15.304 12.29L14.073 11.644L12.842 12.29L13.08 10.92L12.08 9.953L13.455 9.75302L14.07 8.50702L14.685 9.75302L16.06 9.953L15.071 10.92Z" fill="white"/>
</svg>
