<svg width="17" height="21" viewBox="0 0 17 21" fill="none" xmlns="http://www.w3.org/2000/svg">
<path opacity="0.5" d="M8.27301 0L1.6485e-07 1.55103V14.969C-0.000256163 15.8622 0.29842 16.7297 0.84845 17.4334C1.39848 18.1372 2.16822 18.6365 3.035 18.852L8.27301 20.165L13.516 18.852C14.3818 18.6356 15.1505 18.1358 15.6995 17.4322C16.2486 16.7285 16.5465 15.8615 16.546 14.969V1.55301L8.27301 0ZM4.431 12.291L3.20001 11.645L1.96899 12.291L2.207 10.921L1.207 9.95401L2.582 9.75403L3.19699 8.50803L3.81201 9.75403L5.18701 9.95401L4.194 10.921L4.431 12.291ZM8.27301 10.76L6.05002 11.934L6.474 9.45203L4.67401 7.69901L7.16602 7.33701L8.27802 5.07703L9.39499 7.33701L11.882 7.69901L10.082 9.45203L10.506 11.934L8.27301 10.76ZM14.343 10.92L14.576 12.29L13.345 11.644L12.114 12.29L12.352 10.92L11.352 9.953L12.727 9.75302L13.342 8.50702L13.957 9.75302L15.332 9.953L14.343 10.92Z" fill="white"/>
</svg>
