<svg xmlns="http://www.w3.org/2000/svg" width="11.426" height="13" viewBox="0 0 11.426 13">
  <g id="user" transform="translate(-31)">
    <g id="Group_687" data-name="Group 687" transform="translate(33.285)">
      <g id="Group_686" data-name="Group 686">
        <path id="Path_2104" data-name="Path 2104" d="M124.428,0a3.428,3.428,0,1,0,3.428,3.428A3.432,3.432,0,0,0,124.428,0Z" transform="translate(-121 0)" fill="#fff"/>
      </g>
    </g>
    <g id="Group_689" data-name="Group 689" transform="translate(31 7.617)">
      <g id="Group_688" data-name="Group 688" transform="translate(0)">
        <path id="Path_2105" data-name="Path 2105" d="M40.978,301.478a4.886,4.886,0,0,0-3.5-1.478H35.951a4.887,4.887,0,0,0-3.5,1.478A5,5,0,0,0,31,305a.381.381,0,0,0,.381.381H42.045a.381.381,0,0,0,.381-.381A5,5,0,0,0,40.978,301.478Z" transform="translate(-31 -300)" fill="#fff"/>
      </g>
    </g>
  </g>
</svg>
